<?xml version="1.0" standalone="no"?>
<!DOCTYPE svg PUBLIC "-//W3C//DTD SVG 20010904//EN"
 "http://www.w3.org/TR/2001/REC-SVG-20010904/DTD/svg10.dtd">
<svg version="1.0" xmlns="http://www.w3.org/2000/svg"
 width="16.000000pt" height="16.000000pt" viewBox="0 0 16.000000 16.000000"
 preserveAspectRatio="xMidYMid meet">

<g transform="translate(0.000000,16.000000) scale(0.100000,-0.100000)"
fill="currentColor" stroke="none">
<path d="M43 148 c-32 -16 -48 -61 -34 -97 15 -35 48 -51 106 -51 l45 0 0 45
c0 55 -15 90 -47 104 -29 13 -41 13 -70 -1z m32 -40 c4 12 11 22 16 22 13 0
11 -28 -2 -36 -8 -4 -4 -13 12 -25 26 -20 10 -26 -22 -9 -16 9 -19 7 -19 -15
0 -14 -4 -25 -10 -25 -11 0 -13 63 -3 100 l7 25 7 -30 c6 -28 7 -29 14 -7z"/>
</g>
</svg>
